<?xml version="1.0" encoding="UTF-8" ?>
<!DOCTYPE svg PUBLIC "-//W3C//DTD SVG 1.1//EN" "http://www.w3.org/Graphics/SVG/1.1/DTD/svg11.dtd">
<svg width="40pt" height="41pt" viewBox="0 0 40 41" version="1.1" xmlns="http://www.w3.org/2000/svg">
<g id="#8c8e93d8">
<path fill="#8c8e93" opacity="0.85" d=" M 0.00 0.00 L 40.00 0.00 L 40.00 37.67 C 26.67 37.66 13.33 37.68 0.00 37.65 L 0.00 0.00 M 1.52 1.48 C 1.53 13.00 1.47 24.52 1.55 36.04 C 3.38 36.03 5.20 36.03 7.03 36.03 C 6.85 24.49 7.24 12.93 6.94 1.38 C 5.14 1.42 3.33 1.45 1.52 1.48 M 8.72 1.56 C 8.72 11.35 8.84 21.14 8.65 30.93 C 9.26 30.43 10.48 29.41 11.09 28.91 C 13.59 28.78 14.47 32.09 12.74 33.63 C 11.06 34.73 9.85 33.01 8.62 32.11 C 8.66 33.09 8.74 35.04 8.78 36.02 C 10.53 36.03 12.28 36.03 14.03 36.04 C 13.83 24.48 14.26 12.92 13.94 1.35 C 12.20 1.42 10.46 1.48 8.72 1.56 M 15.73 1.52 C 15.76 13.02 15.73 24.52 15.74 36.02 C 23.39 36.01 31.04 36.14 38.68 35.93 C 38.56 24.44 38.67 12.95 38.62 1.45 C 30.99 1.47 23.36 1.36 15.73 1.52 M 11.23 31.25 C 11.84 31.87 11.84 31.87 11.23 31.25 Z" />
<path fill="#8c8e93" opacity="0.85" d=" M 19.81 7.60 C 23.23 7.18 26.69 7.47 30.12 7.42 L 30.15 9.00 C 26.35 8.98 22.55 9.09 18.75 8.92 L 19.81 7.60 Z" />
<path fill="#8c8e93" opacity="0.85" d=" M 18.58 11.17 C 23.99 10.91 29.45 10.82 34.85 11.15 L 36.13 12.29 C 32.11 12.90 28.04 12.61 24.00 12.70 C 22.13 12.51 19.61 13.31 18.58 11.17 Z" />
<path fill="#8c8e93" opacity="0.85" d=" M 19.83 14.69 C 23.24 14.24 26.69 14.55 30.12 14.49 L 30.16 16.07 C 26.36 16.07 22.55 16.14 18.75 15.95 L 19.83 14.69 Z" />
<path fill="#8c8e93" opacity="0.85" d=" M 18.73 19.55 C 19.01 19.19 19.58 18.45 19.87 18.08 C 24.83 18.01 29.87 17.72 34.80 18.22 L 36.20 19.25 C 30.44 20.18 24.54 19.71 18.73 19.55 Z" />
<path fill="#8c8e93" opacity="0.85" d=" M 3.29 29.30 C 5.83 27.71 7.83 31.93 5.75 33.56 C 3.11 35.49 0.29 30.78 3.29 29.30 M 4.12 31.21 C 4.74 31.83 4.74 31.83 4.12 31.21 Z" />
<path fill="#8c8e93" opacity="0.85" d=" M 0.00 39.41 C 13.33 39.42 26.67 39.38 40.00 39.43 L 40.00 41.00 L 0.00 41.00 L 0.00 39.41 Z" />
</g>
</svg>
