<?xml version="1.0" encoding="UTF-8" ?>
<!DOCTYPE svg PUBLIC "-//W3C//DTD SVG 1.1//EN" "http://www.w3.org/Graphics/SVG/1.1/DTD/svg11.dtd">
<svg width="110pt" height="51pt" viewBox="0 0 110 51" version="1.1" xmlns="http://www.w3.org/2000/svg">
<g id="#a5034ff2">
<path fill="#a5034f" opacity="0.95" d=" M 3.35 0.00 L 4.55 0.00 C 6.33 0.97 8.08 2.00 9.84 2.99 C 12.22 1.89 14.65 0.90 17.10 0.00 L 20.93 0.00 C 23.28 0.97 25.62 1.98 27.96 2.99 C 29.70 1.96 31.44 0.94 33.23 0.00 L 33.80 0.00 C 34.55 2.35 34.58 4.82 34.48 7.26 C 35.84 7.41 37.20 7.55 38.55 7.68 C 37.93 12.64 35.75 17.16 34.48 21.91 C 35.70 27.35 35.42 33.15 33.35 38.35 C 30.75 44.29 25.30 48.38 19.53 51.00 L 18.36 51.00 C 11.08 48.08 4.34 42.10 3.09 34.01 C 1.87 29.70 2.52 25.30 3.36 21.00 C 2.46 17.37 0.62 14.02 0.00 10.30 L 0.00 7.57 C 0.83 7.50 2.50 7.37 3.34 7.30 C 3.33 4.86 3.34 2.43 3.35 0.00 M 4.70 1.71 C 4.71 3.56 4.71 5.41 4.71 7.25 C 9.88 7.16 16.78 7.01 19.07 12.79 C 21.28 7.09 28.05 7.17 33.15 7.24 C 33.14 5.38 33.13 3.52 33.14 1.66 C 31.37 2.65 29.59 3.63 27.80 4.59 C 25.89 3.56 23.91 2.66 21.91 1.81 C 22.19 3.60 21.79 5.07 20.71 6.23 C 20.57 4.95 20.27 2.39 20.13 1.12 C 18.97 3.09 20.74 6.40 18.33 7.41 C 18.29 5.31 18.39 3.15 17.71 1.13 C 17.45 2.91 17.63 4.98 16.21 6.35 C 16.09 4.84 16.00 3.34 15.92 1.83 C 13.88 2.63 11.90 3.55 9.97 4.58 C 8.20 3.64 6.45 2.68 4.70 1.71 M 1.31 8.74 C 2.16 13.74 3.23 19.58 7.95 22.44 C 6.15 20.39 4.56 17.82 5.21 14.97 C 5.53 11.73 8.64 9.96 11.29 8.73 C 7.96 8.65 4.63 8.59 1.31 8.74 M 26.95 8.78 C 30.44 10.29 33.75 13.58 32.61 17.74 C 33.08 18.39 33.57 19.03 34.06 19.67 C 34.83 15.99 36.36 12.50 36.81 8.74 C 33.53 8.58 30.24 8.63 26.95 8.78 M 11.47 10.55 C 6.99 10.82 4.76 17.00 7.94 20.11 C 10.45 23.18 16.18 22.61 17.53 18.70 C 19.95 14.74 15.82 9.62 11.47 10.55 M 22.36 11.36 C 18.27 13.68 19.71 20.74 24.06 21.81 C 27.63 23.11 31.79 19.77 31.44 16.02 C 31.50 11.61 25.91 8.94 22.36 11.36 M 18.29 20.06 C 17.75 21.88 18.23 22.48 19.72 21.87 C 20.27 20.06 19.79 19.46 18.29 20.06 M 30.54 21.89 C 31.90 21.88 32.81 21.23 33.27 19.93 C 32.16 19.13 29.72 20.55 30.54 21.89 M 4.62 21.74 C 4.65 22.51 4.72 24.06 4.75 24.83 C 10.01 26.80 15.25 30.30 17.18 35.84 C 18.84 40.08 18.47 44.66 18.05 49.09 C 18.45 49.28 19.24 49.66 19.63 49.85 C 19.22 44.56 18.64 38.92 21.25 34.06 C 23.54 29.31 28.39 26.76 32.97 24.68 C 33.06 24.06 33.25 22.82 33.34 22.21 C 29.63 24.41 24.84 24.69 21.17 22.25 C 20.44 23.21 19.70 24.17 18.97 25.13 C 18.22 24.21 17.48 23.29 16.73 22.36 C 13.03 24.93 8.05 24.64 4.62 21.74 M 23.81 47.01 C 27.07 44.55 30.38 41.78 31.96 37.90 C 33.46 34.23 33.72 30.22 34.07 26.31 C 26.27 29.57 20.87 38.68 23.81 47.01 M 3.67 26.32 C 3.37 34.45 6.58 42.91 13.91 47.10 C 16.59 38.68 11.53 29.68 3.67 26.32 M 11.38 29.83 C 14.44 34.13 16.86 39.38 15.66 44.78 C 15.68 46.17 14.36 48.08 16.37 48.81 C 18.15 42.22 16.71 34.44 11.38 29.83 M 21.00 48.72 C 21.36 48.47 22.08 47.96 22.45 47.71 C 20.63 41.58 22.18 35.05 26.04 30.00 C 20.67 34.64 19.97 42.16 21.00 48.72 Z" />
<path fill="#a5034f" opacity="0.95" d=" M 45.97 11.32 C 49.84 10.94 53.79 10.75 57.63 11.48 C 61.41 12.35 61.72 17.80 59.16 20.11 C 57.14 22.06 54.12 21.75 51.55 22.08 C 51.57 24.44 50.81 27.69 54.29 27.58 C 52.01 29.62 48.60 28.28 45.88 28.22 C 46.43 27.79 47.52 26.93 48.07 26.51 C 48.57 22.07 48.22 17.55 48.20 13.09 C 47.45 12.50 46.71 11.92 45.97 11.32 M 51.62 13.09 C 51.59 15.49 51.57 17.89 51.56 20.29 C 53.71 20.05 57.41 20.05 57.28 16.97 C 57.76 13.68 54.08 13.00 51.62 13.09 Z" />
<path fill="#a5034f" opacity="0.95" d=" M 11.16 12.04 C 14.45 11.04 17.86 14.69 16.35 17.86 C 15.32 20.79 10.88 21.43 9.01 18.99 C 6.85 16.77 8.22 12.74 11.16 12.04 M 11.14 15.17 C 9.97 16.49 11.99 18.70 13.24 17.31 C 15.13 16.30 12.55 13.55 11.14 15.17 Z" />
<path fill="#a5034f" opacity="0.95" d=" M 23.32 12.48 C 26.49 10.42 31.01 13.98 29.62 17.54 C 28.75 20.75 23.98 21.54 22.06 18.88 C 20.34 16.96 21.04 13.64 23.32 12.48 M 24.14 15.22 C 24.11 15.65 24.04 16.52 24.00 16.96 C 25.53 19.34 28.77 15.58 25.90 14.88 C 25.46 14.97 24.58 15.13 24.14 15.22 Z" />
<path fill="#a5034f" opacity="0.95" d=" M 66.65 16.56 C 68.40 16.11 70.15 15.65 71.91 15.23 C 71.73 16.45 71.48 17.65 71.15 18.83 C 70.33 18.60 68.68 18.13 67.86 17.89 C 66.13 20.48 66.69 23.76 66.91 26.68 C 67.52 26.91 68.72 27.38 69.32 27.61 C 67.22 29.56 64.02 28.30 61.47 28.24 C 62.01 27.82 63.09 26.98 63.63 26.56 C 63.65 23.77 63.65 20.97 63.52 18.18 C 62.81 17.70 62.29 17.07 61.97 16.29 C 63.47 15.58 65.40 15.15 66.65 16.56 Z" />
<path fill="#a5034f" opacity="0.95" d=" M 72.67 16.64 C 75.72 15.62 79.47 14.69 82.35 16.65 C 83.94 20.27 82.00 24.82 84.62 28.18 C 83.16 28.62 81.65 28.76 80.29 27.96 C 78.22 28.50 75.88 29.35 73.85 28.24 C 72.22 26.84 72.22 24.23 73.70 22.72 C 75.48 20.91 78.24 21.46 80.51 21.16 C 80.25 19.87 79.72 18.73 78.93 17.73 C 77.36 17.43 76.03 18.28 74.82 19.14 C 74.28 18.51 73.21 17.26 72.67 16.64 M 75.85 24.02 C 75.28 25.51 76.36 27.15 78.07 26.55 C 80.15 26.97 80.15 24.59 80.60 23.23 C 79.04 23.25 77.01 22.64 75.85 24.02 Z" />
<path fill="#a5034f" opacity="0.95" d=" M 84.15 15.86 C 85.65 16.08 88.52 14.64 89.14 16.78 C 90.12 19.84 90.79 23.00 91.81 26.06 C 92.55 23.49 93.26 20.92 94.01 18.36 C 93.77 17.76 93.29 16.56 93.05 15.95 C 94.68 15.82 96.32 15.73 97.96 15.67 C 95.86 19.84 94.60 24.35 92.80 28.64 C 91.76 28.69 90.71 28.74 89.67 28.79 C 87.92 24.45 87.38 19.46 84.15 15.86 Z" />
<path fill="#a5034f" opacity="0.95" d=" M 98.90 18.89 C 100.77 13.90 109.91 14.29 110.00 20.19 L 110.00 22.82 C 110.01 26.87 105.96 29.74 102.11 28.65 C 97.75 27.83 97.55 22.21 98.90 18.89 M 102.53 26.59 C 103.84 26.35 105.95 27.08 106.38 25.29 C 107.53 22.57 107.20 16.52 102.91 17.71 C 100.57 20.07 101.49 23.82 102.53 26.59 Z" />
<path fill="#a5034f" opacity="0.95" d=" M 52.92 34.24 C 54.57 33.34 56.51 33.44 58.32 33.23 C 57.61 34.63 57.00 36.07 56.45 37.54 C 55.33 37.82 54.20 38.10 53.07 38.36 C 54.78 38.54 56.47 38.74 58.17 38.95 C 58.43 42.46 54.59 42.07 52.23 41.94 C 52.73 39.39 51.90 36.67 52.92 34.24 M 54.08 34.97 C 53.59 36.43 54.02 36.96 55.38 36.55 C 55.87 35.09 55.44 34.57 54.08 34.97 M 53.83 40.12 C 54.14 41.39 54.92 41.60 56.19 40.75 C 55.89 39.48 55.10 39.27 53.83 40.12 Z" />
<path fill="#a5034f" opacity="0.95" d=" M 58.06 36.99 C 57.64 34.90 59.52 33.92 61.07 33.17 C 62.62 33.88 63.64 35.03 63.21 36.85 C 62.25 36.90 60.33 37.00 59.37 37.05 C 60.32 38.40 61.72 38.85 63.59 38.39 C 62.34 40.76 57.59 40.02 58.06 36.99 M 59.94 35.05 C 60.27 38.36 62.86 33.36 59.94 35.05 Z" />
<path fill="#a5034f" opacity="0.95" d=" M 63.93 33.58 C 65.62 33.63 67.34 33.48 68.99 33.94 C 69.69 35.90 69.61 38.02 69.73 40.07 C 67.09 39.68 68.11 36.24 67.38 34.37 C 65.01 35.29 66.11 37.98 66.68 39.70 C 66.05 39.71 64.80 39.74 64.18 39.75 C 64.37 37.69 64.41 35.61 63.93 33.58 Z" />
<path fill="#a5034f" opacity="0.95" d=" M 70.26 37.12 C 69.71 33.79 73.50 32.91 75.95 33.81 C 74.86 34.93 73.55 35.25 72.02 34.78 C 72.03 35.70 72.04 37.55 72.04 38.47 C 72.90 38.43 74.61 38.35 75.47 38.30 C 74.58 40.84 69.74 40.06 70.26 37.12 Z" />
<path fill="#a5034f" opacity="0.95" d=" M 76.47 33.33 C 78.09 33.89 78.03 36.14 78.94 37.40 C 79.12 36.09 79.28 34.79 79.43 33.48 C 80.00 33.54 81.14 33.66 81.71 33.72 C 80.41 36.24 79.76 39.03 78.54 41.58 C 77.26 41.98 75.93 42.13 74.56 42.03 C 75.64 41.37 76.78 40.81 77.97 40.36 C 77.53 38.12 75.31 35.53 76.47 33.33 Z" />
<path fill="#a5034f" opacity="0.95" d=" M 46.50 34.96 C 46.42 32.61 49.66 33.94 51.02 33.83 C 51.28 35.79 51.48 37.76 51.69 39.72 C 49.94 39.40 46.53 40.70 46.27 38.04 C 46.62 36.26 48.88 35.99 50.23 35.19 C 49.30 35.13 47.43 35.02 46.50 34.96 M 48.25 37.26 C 47.95 40.60 51.38 36.11 48.25 37.26 Z" />
</g>
</svg>
