<?xml version="1.0" encoding="UTF-8" ?>
<!DOCTYPE svg PUBLIC "-//W3C//DTD SVG 1.1//EN" "http://www.w3.org/Graphics/SVG/1.1/DTD/svg11.dtd">
<svg width="42pt" height="42pt" viewBox="0 0 42 42" version="1.1" xmlns="http://www.w3.org/2000/svg">
<g id="#85868bcc">
<path fill="#85868b" opacity="0.80" d=" M 34.06 0.00 L 38.22 0.00 C 38.23 1.12 38.24 2.24 38.25 3.36 C 39.50 3.38 40.75 3.39 42.00 3.41 L 42.00 7.45 C 40.88 8.48 39.79 9.54 38.74 10.64 C 38.41 10.75 37.74 10.95 37.40 11.06 C 37.18 11.85 36.74 13.44 36.52 14.23 C 38.72 20.11 39.08 27.13 35.66 32.63 C 33.00 37.45 28.06 40.55 22.85 42.00 L 15.42 42.00 C 7.66 40.26 1.25 33.83 0.00 25.91 L 0.00 20.13 C 0.95 13.14 5.94 6.88 12.65 4.60 C 17.68 2.72 23.17 3.57 28.05 5.51 C 28.92 5.12 29.79 4.72 30.66 4.31 C 31.67 2.92 32.63 1.48 33.54 0.01 L 34.06 0.00 M 35.30 1.08 C 35.15 2.15 35.01 3.23 34.90 4.31 C 34.54 4.39 33.83 4.54 33.47 4.62 C 32.89 5.88 31.94 6.74 30.60 7.18 C 30.50 8.14 30.40 9.09 30.31 10.05 C 32.28 8.12 34.26 6.18 36.40 4.44 C 37.03 7.76 33.44 9.46 31.67 11.72 C 32.87 11.68 34.07 11.63 35.26 11.58 C 35.27 10.94 35.29 9.65 35.30 9.01 C 35.78 9.00 36.73 8.99 37.21 8.98 C 37.30 6.95 38.79 6.14 40.57 5.75 C 39.23 5.62 37.91 5.44 36.59 5.21 C 36.32 3.79 35.91 2.40 35.30 1.08 M 1.84 23.00 C 1.61 32.13 9.90 40.47 19.05 40.15 C 27.14 40.40 34.69 33.98 36.03 26.05 C 36.59 21.95 36.29 17.42 33.76 13.98 C 32.48 13.70 31.17 13.62 29.86 13.49 C 34.23 19.42 34.15 28.40 28.30 33.33 C 21.99 39.41 10.50 37.23 6.74 29.37 C 3.11 23.04 5.76 14.39 11.98 10.78 C 17.07 7.62 23.76 8.66 28.42 12.15 C 28.41 10.87 28.43 9.60 28.50 8.33 C 25.12 6.16 21.07 5.17 17.08 5.68 C 8.54 6.34 1.50 14.49 1.84 23.00 M 7.84 26.87 C 9.43 31.57 14.14 34.75 19.01 35.00 C 25.30 34.86 31.10 29.40 31.03 23.01 C 31.31 20.11 29.70 17.57 28.50 15.07 C 27.69 15.79 26.89 16.51 26.08 17.22 C 27.90 20.33 28.69 24.30 26.54 27.48 C 23.49 33.00 14.60 32.99 11.60 27.43 C 8.64 23.09 10.85 16.57 15.68 14.71 C 18.69 13.20 22.05 14.33 24.76 15.90 C 25.46 15.08 26.17 14.26 26.88 13.44 C 24.43 12.17 21.91 10.62 19.02 10.87 C 11.18 10.50 4.65 19.62 7.84 26.87 M 16.57 16.49 C 13.06 17.92 11.03 22.46 13.00 25.87 C 15.08 30.75 22.79 30.88 25.03 26.07 C 26.62 23.76 25.70 21.05 24.84 18.68 C 23.97 19.55 23.09 20.43 22.20 21.29 C 21.77 22.67 22.09 24.64 20.54 25.36 C 18.33 27.25 14.80 23.74 16.45 21.41 C 17.21 19.76 19.25 20.16 20.72 19.82 C 21.58 18.92 22.45 18.01 23.31 17.11 C 21.18 16.44 18.73 15.31 16.57 16.49 M 18.12 22.21 C 17.65 23.57 18.12 24.14 19.55 23.90 C 20.00 22.56 19.52 22.00 18.12 22.21 Z" />
</g>
</svg>
