<?xml version="1.0" encoding="UTF-8" ?>
<!DOCTYPE svg PUBLIC "-//W3C//DTD SVG 1.1//EN" "http://www.w3.org/Graphics/SVG/1.1/DTD/svg11.dtd">
<svg width="15pt" height="11pt" viewBox="0 0 15 11" version="1.1" xmlns="http://www.w3.org/2000/svg">
<g id="#ddddddff">
<path fill="#dddddd" opacity="1.00" d=" M 9.28 0.00 L 15.00 0.00 L 15.00 -0.26 C 13.29 2.60 13.54 6.50 10.68 8.65 C 9.22 10.15 7.06 10.21 5.25 11.00 L 5.25 11.00 C 3.94 10.68 1.32 10.03 0.01 9.71 C 1.11 9.49 3.31 9.05 4.41 8.84 C 3.92 8.56 2.93 8.01 2.43 7.73 C 1.61 6.81 1.64 4.10 0.00 4.47 L 0.00 3.83 C 0.00 3.69 0.00 3.40 0.00 3.26 L 0.00 1.18 L 0.01 1.35 C 2.59 0.71 4.39 3.62 7.10 3.35 C 7.13 1.84 8.02 0.74 9.28 0.00 Z" />
</g>
</svg>
