<?xml version="1.0" encoding="UTF-8" ?>
<!DOCTYPE svg PUBLIC "-//W3C//DTD SVG 1.1//EN" "http://www.w3.org/Graphics/SVG/1.1/DTD/svg11.dtd">
<svg width="25pt" height="25pt" viewBox="0 0 25 25" version="1.1" xmlns="http://www.w3.org/2000/svg">
<g id="#cacbd0ff">
<path fill="#cacbd0" opacity="1.00" d=" M 10.85 0.00 L 13.98 0.00 C 19.58 0.70 24.18 5.27 25.00 10.85 L 25.00 13.98 C 24.30 19.58 19.73 24.16 14.16 25.00 L 11.02 25.00 C 5.41 24.31 0.84 19.72 0.00 14.16 L 0.00 11.02 C 0.70 5.41 5.28 0.83 10.85 0.00 M 6.24 7.34 C 4.44 8.60 4.82 11.06 4.73 12.96 C 4.81 14.59 4.68 16.63 6.23 17.66 C 10.36 18.11 14.59 18.24 18.71 17.66 C 20.56 16.45 20.16 13.95 20.28 12.06 C 20.11 10.49 20.50 8.15 18.76 7.34 C 14.62 6.88 10.37 6.78 6.24 7.34 Z" />
<path fill="#cacbd0" opacity="1.00" d=" M 10.94 9.32 C 12.52 10.38 14.11 11.44 15.70 12.49 C 14.11 13.55 12.53 14.61 10.94 15.67 C 10.94 13.55 10.94 11.43 10.94 9.32 Z" />
</g>
</svg>
